<svg xmlns="http://www.w3.org/2000/svg" viewBox="0 0 1211.3 212.3"><style>.st0,.st1{opacity:.2}.st1{fill:#ec008c}.st2{fill:none;stroke:#ec008c;stroke-width:1.4173;stroke-miterlimit:10}.st3{fill:#ec008c}.st4{fill:#9aa6af}.st5{fill:#1b1b1b}.st6{fill:#fff}.st7{fill:url(#XMLID_389_)}.st8{fill:url(#XMLID_390_)}.st9{fill:url(#XMLID_391_)}.st10{fill:url(#XMLID_392_)}.st11{fill:url(#XMLID_393_)}.st12{fill:url(#XMLID_394_)}.st13{fill:url(#XMLID_395_)}.st14{fill:url(#XMLID_396_)}.st15{fill:url(#XMLID_397_)}.st16{fill:url(#XMLID_398_)}.st17{fill:url(#XMLID_399_)}.st18{fill:url(#XMLID_400_)}.st19{fill:url(#XMLID_401_)}.st20{fill:url(#XMLID_402_)}.st21{fill:url(#XMLID_403_)}.st22{fill:url(#XMLID_404_)}</style><g id="AG_Logo_copy"><g id="XMLID_269_"><path class="st6" d="M.6 101.5c-1.2 4.5-.6 9.2 1.7 13.3s6.1 6.9 10.6 8.1c4.7 1.3 9.4.5 13.3-1.8 1.9-1.1 3.7-2.6 5.1-4.4 1.4-1.8 2.5-3.9 3.1-6.2 1.2-4.5.6-9.2-1.7-13.3s-6.1-6.9-10.6-8.1c-9.4-2.4-19 3.1-21.5 12.4zM45.1 178.6c-1.2 4.5-.6 9.2 1.7 13.3s6.1 6.9 10.6 8.1c4.7 1.2 9.4.5 13.3-1.8 3.9-2.2 6.9-6 8.2-10.6 1.2-4.5.6-9.2-1.7-13.3s-6.1-6.9-10.6-8.1c-9.4-2.5-19 3-21.5 12.4zM159.2 44.5c2-1.2 3.8-2.7 5.1-4.5 1.4-1.8 2.4-3.9 3-6.1 1.2-4.5.6-9.2-1.7-13.3s-6.1-6.9-10.6-8.1c-4.5-1.2-9.2-.6-13.3 1.7s-6.9 6.1-8.1 10.6c-1.2 4.5-.6 9.2 1.7 13.3s6.1 6.9 10.6 8.1c4.5 1.2 9.2.6 13.3-1.7zM186.1 91.2c-4 2.3-6.9 6.1-8.1 10.6-1.2 4.5-.6 9.2 1.7 13.3 2.3 4 6.1 6.9 10.6 8.1 4.5 1.2 9.2.6 13.3-1.7s6.9-6.1 8.1-10.6c1.2-4.5.6-9.2-1.7-13.3-2.3-4-6.1-6.9-10.6-8.1-4.5-1.3-9.2-.6-13.3 1.7zM133.5 178.3c-2.5 9.3 3.1 18.9 12.4 21.4 4.7 1.2 9.4.5 13.3-1.8 1.9-1.1 3.7-2.6 5.1-4.4 1.4-1.8 2.5-3.9 3.1-6.2 2.5-9.3-3-18.9-12.4-21.4s-19 3-21.5 12.4zM44.9 24.8c-2.5 9.3 3 18.9 12.4 21.4 4.7 1.2 9.4.5 13.3-1.8 1.9-1.1 3.7-2.6 5.1-4.4 1.4-1.8 2.5-3.9 3.1-6.2 2.5-9.3-3.1-18.9-12.4-21.4-9.4-2.5-19 3.1-21.5 12.4z"/><g id="XMLID_280_"><path class="st6" d="M38.1 165.5c-1.3.7-2.7 1.3-4.2 1.7-4.5 1.2-9.2.6-13.2-1.7s-6.9-6.1-8.1-10.6c-1.2-4.5-.6-9.2 1.7-13.2s6.1-6.9 10.6-8.1c9.3-2.5 18.9 3 21.4 12.3 2 7.7-1.5 15.7-8.2 19.6zM21.7 137c-2.3 1.3-4.3 3.3-5.6 5.6-2.1 3.6-2.6 7.7-1.5 11.7 1.1 4 3.6 7.3 7.2 9.4 3.6 2.1 7.7 2.6 11.7 1.5 8.2-2.2 13.1-10.7 10.9-18.9-2.2-8.2-10.7-13.1-18.9-10.9-1.4.4-2.7.9-3.8 1.6z" id="XMLID_281_"/></g><g id="XMLID_278_"><path class="st6" d="M115.1 209.9c-1.3.7-2.7 1.3-4.2 1.7-4.5 1.2-9.2.6-13.2-1.7s-6.9-6.1-8.1-10.6c-1.2-4.5-.6-9.2 1.7-13.2s6.1-6.9 10.6-8.1c4.5-1.2 9.2-.6 13.2 1.7s6.9 6.1 8.1 10.6c2.1 7.8-1.4 15.8-8.1 19.6zm-16.4-28.4c-2.3 1.3-4.3 3.3-5.6 5.6-2.1 3.6-2.6 7.7-1.5 11.7 2.2 8.2 10.7 13.1 18.9 10.9 8.2-2.2 13.1-10.7 10.9-18.9-2.2-8.2-10.7-13.1-18.9-10.9-1.4.4-2.7.9-3.8 1.6z" id="XMLID_279_"/></g><g id="XMLID_276_"><path class="st6" d="M114.8 32.6c-1.3.7-2.7 1.3-4.2 1.7-9.3 2.5-18.9-3-21.4-12.3s3-18.9 12.3-21.4 18.9 3 21.4 12.3c2.2 7.8-1.4 15.8-8.1 19.7zM98.4 4.1c-5.9 3.4-9 10.5-7.2 17.4 2.2 8.2 10.7 13.1 18.9 10.9 8.2-2.2 13.1-10.7 10.9-18.9-1.1-4-3.6-7.3-7.2-9.4-3.6-2.1-7.7-2.6-11.7-1.5-1.3.3-2.5.8-3.7 1.5z" id="XMLID_277_"/></g><g id="XMLID_274_"><path class="st6" d="M191.9 77c-1.3.7-2.7 1.3-4.2 1.7-9.3 2.5-18.9-3-21.4-12.3s3-18.9 12.3-21.4c4.5-1.2 9.2-.6 13.2 1.7s6.9 6.1 8.1 10.6c2.2 7.9-1.4 15.9-8 19.7zm-16.5-28.4c-5.9 3.4-9 10.5-7.2 17.4 2.2 8.2 10.7 13.1 18.9 10.9 8.2-2.2 13.1-10.7 10.9-18.9-1.1-4-3.6-7.3-7.2-9.4s-7.7-2.6-11.7-1.5c-1.3.3-2.5.8-3.7 1.5z" id="XMLID_275_"/></g><g id="XMLID_272_"><path class="st6" d="M191.6 165.5c-1.3.7-2.7 1.3-4.2 1.7-9.3 2.5-18.9-3-21.4-12.3s3-18.9 12.3-21.4c4.5-1.2 9.2-.6 13.2 1.7s6.9 6.1 8.1 10.6c2.2 7.8-1.4 15.8-8 19.7zM175.1 137c-5.9 3.4-9 10.5-7.2 17.4 2.2 8.2 10.7 13.1 18.9 10.9 8.2-2.2 13.1-10.7 10.9-18.9-1.1-4-3.6-7.3-7.2-9.4-3.6-2.1-7.7-2.6-11.7-1.5-1.3.3-2.5.8-3.7 1.5z" id="XMLID_273_"/></g><g id="XMLID_270_"><path class="st6" d="M38.1 76.9c-1.3.7-2.7 1.3-4.2 1.7-4.5 1.2-9.2.6-13.2-1.7s-6.9-6.1-8.1-10.6c-1.2-4.5-.6-9.2 1.7-13.2s6.1-6.9 10.6-8.1c9.3-2.5 18.9 3 21.4 12.3 2 7.7-1.5 15.7-8.2 19.6zM21.7 48.4c-2.3 1.3-4.3 3.3-5.6 5.6-2.1 3.6-2.6 7.7-1.5 11.7 2.2 8.2 10.7 13.1 18.9 10.9 8.2-2.2 13.1-10.7 10.9-18.9-2.2-8.2-10.7-13.1-18.9-10.9-1.4.4-2.7.9-3.8 1.6z" id="XMLID_271_"/></g></g><g id="XMLID_168_"><g id="XMLID_169_"><path id="XMLID_266_" class="st6" d="M253 160.3l40.4-107.2H309l40.4 107.2h-15.3l-10.3-29h-45.1l-10.5 29H253zm30.4-41.9H319L301.5 70h-.6l-17.5 48.4z"/><path id="XMLID_264_" class="st6" d="M373.4 160.3h-13.8V53.1h13.8v107.2z"/><path id="XMLID_187_" class="st6" d="M427.1 162.7c-5.6 0-10.6-1.2-15-3.6-4.4-2.4-7.8-5.4-10-9h-.6l.6 10.2v32.3h-13.8V86.9h13.2v10.2h.6c2.2-3.6 5.5-6.6 10-9 4.4-2.4 9.5-3.6 15-3.6 9.5 0 17.7 3.7 24.6 11.2 6.9 7.5 10.3 16.8 10.3 27.8 0 11.1-3.4 20.4-10.3 27.8-7 7.6-15.1 11.4-24.6 11.4zm-2.3-12.6c6.4 0 11.9-2.4 16.5-7.3 4.6-4.8 6.9-11.3 6.9-19.2 0-8-2.3-14.4-6.9-19.2-4.6-4.8-10.1-7.3-16.5-7.3-6.5 0-12 2.4-16.5 7.2-4.5 4.8-6.8 11.2-6.8 19.3s2.3 14.5 6.8 19.3c4.5 4.8 10 7.2 16.5 7.2z"/><path id="XMLID_185_" class="st6" d="M486.8 53.1v33.8l-.6 10.2h.6c2-3.5 5.1-6.5 9.4-8.9 4.3-2.4 8.9-3.7 13.8-3.7 9.1 0 16 2.8 20.8 8.4 4.8 5.6 7.2 13.1 7.2 22.5v44.9h-13.8v-42.8c0-13.6-6-20.4-18.1-20.4-5.7 0-10.3 2.3-13.9 6.8-3.6 4.5-5.4 9.8-5.4 15.8v40.6H473V53.1h13.8z"/><path id="XMLID_180_" class="st6" d="M576.6 162.7c-7.8 0-14.3-2.2-19.5-6.7-5.2-4.5-7.9-10.4-7.9-17.8 0-8 3.1-14.2 9.3-18.8 6.2-4.5 13.8-6.8 22.9-6.8 8.1 0 14.7 1.5 19.9 4.5V115c0-5.4-1.8-9.7-5.5-12.9-3.7-3.2-8.2-4.9-13.6-4.9-4 0-7.6.9-10.9 2.8-3.2 1.9-5.5 4.5-6.7 7.8l-12.6-5.4c1.7-4.4 5-8.5 10-12.2 5-3.7 11.6-5.6 19.8-5.6 9.4 0 17.2 2.7 23.4 8.2 6.2 5.5 9.3 13.2 9.3 23.2v44.3h-13.2v-10.2h-.6c-5.4 8.4-13.5 12.6-24.1 12.6zm2.3-12.6c5.7 0 10.9-2.1 15.5-6.4 4.6-4.2 7-9.3 7-15-3.9-3.2-9.7-4.8-17.5-4.8-6.7 0-11.7 1.4-15.1 4.3-3.4 2.9-5.1 6.3-5.1 10.2 0 3.6 1.5 6.4 4.6 8.5 3 2.1 6.6 3.2 10.6 3.2z"/><path id="XMLID_177_" class="st6" d="M735.6 111c0 15-4.4 26.9-13.3 35.8-10.1 10.6-23.2 15.9-39.4 15.9-15.5 0-28.6-5.4-39.4-16.1-10.8-10.7-16.2-24-16.2-39.9 0-15.9 5.4-29.2 16.2-39.9 10.8-10.7 24-16.1 39.4-16.1 7.7 0 15 1.5 22 4.5s12.6 7 16.8 12l-9.4 9.4c-7.1-8.5-16.9-12.7-29.3-12.7-11.3 0-21 4-29.3 11.9-8.2 7.9-12.4 18.2-12.4 30.9s4.1 23 12.4 30.9c8.2 7.9 18 11.9 29.3 11.9 12 0 22-4 29.9-12 5.2-5.2 8.2-12.4 9-21.7H683v-12.9h51.9c.5 2.8.7 5.5.7 8.1z"/><path id="XMLID_170_" class="st6" d="M755.7 95.7c7.1-7.4 16.1-11.2 27.1-11.2s20 3.7 27.1 11.2c7.1 7.4 10.6 16.7 10.6 27.9s-3.5 20.5-10.6 27.9c-7.1 7.4-16.1 11.2-27.1 11.2s-20-3.7-27.1-11.2c-7.1-7.4-10.6-16.7-10.6-27.9s3.5-20.5 10.6-27.9zm10.2 47.1c4.7 4.8 10.4 7.3 16.8 7.3 6.5 0 12.1-2.4 16.8-7.3 4.7-4.8 7.1-11.3 7.1-19.2 0-8-2.4-14.4-7.1-19.2-4.7-4.8-10.4-7.3-16.8-7.3-6.5 0-12.1 2.4-16.8 7.3-4.7 4.8-7.1 11.3-7.1 19.2 0 8 2.4 14.4 7.1 19.2z"/></g></g><linearGradient id="XMLID_389_" gradientUnits="userSpaceOnUse" x1="69.329" y1="103.329" x2="163.636" y2="103.329"><stop offset="0" stop-color="#6cafe0"/><stop offset="1" stop-color="#acd5f2"/></linearGradient><path id="XMLID_147_" class="st7" d="M106 49.5c-.9 0-1.8.1-2.7.2-.4 0-.9.1-1.3.2s-.9.1-1.3.2-.9.2-1.3.2c-.9.2-1.7.4-2.5.6-.8.2-1.7.5-2.5.8l-2.4.9c-4.3 1.9-8.3 4.6-11.6 7.9l-.9.9c-2.6 2.8-4.9 6.1-6.6 9.8-2.4 5-3.6 10.4-3.6 16 0 6.4 1.6 12.6 4.7 18.2l.1.2c3.8 6.9 9.8 12.5 17 15.8.6.3 1.1.5 1.7.7-4.3-3.8-7.1-9.3-7.2-15.5v-1-.2c.3-11.4 9.5-20.6 20.9-21h2c.8 0 1.6.1 2.4.2.4 0 .7.1 1.1.1.4 0 .7.1 1.1.1l1.1.2c.2 0 .3.1.5.1s.4.1.5.1c.2 0 .3.1.5.1.2.1.5.1.7.2.1 0 .3.1.5.1s.3.1.5.1.3.1.5.1.3.1.5.1c.4.1.8.2 1.1.3l.4.1c.5.1.9.3 1.4.5h.1c.1 0 .2.1.2.1.2.1.5.2.7.3.5.2.9.4 1.4.6.2.1.4.2.5.3 7.7 3.6 14.2 9.7 18.3 17.1l.2.3c3.1 5.8 4.8 12.5 4.8 19.1 0 6-1.3 11.7-3.8 17.1-.3.6-.5 1.1-.8 1.7-.1.3-.3.5-.4.7-.2.4-.4.7-.6 1.1l-.3.6c-.1.2-.3.4-.4.7-.1.2-.2.4-.3.5-.1.1-.2.3-.3.4-.1.2-.3.4-.5.7-.1.1-.1.2-.2.3-.2.3-.4.5-.6.8-.3.3-.5.6-.8 1-.4.5-.8 1-1.3 1.5l-.5.5c-.1.1-.1.1-.1.2l-.7.7-.4.4-.6.6-.3.3c-.2.2-.4.4-.6.5-.1.1-.3.2-.4.3-.2.2-.5.4-.7.6-.4.4-.9.7-1.3 1.1 5.7-2.7 11-6.5 15.6-11.1 10.4-10.4 16.3-24.2 16.6-38.9v-.2-.4-.4-.4-.7c-.3-14.7-6.2-28.5-16.6-38.9-10.3-10.3-24-16.2-38.6-16.5h-1.4l-1.2.1z"/><linearGradient id="XMLID_390_" gradientUnits="userSpaceOnUse" x1="50.519" y1="108.836" x2="144.825" y2="108.836"><stop offset="0" stop-color="#2893d1"/><stop offset=".295" stop-color="#1e88c7"/><stop offset=".721" stop-color="#0e7bbd"/><stop offset="1" stop-color="#0577ba"/></linearGradient><path id="XMLID_146_" class="st8" fill="url(#XMLID_390_)" d="M140.2 106.7l-.1-.2c-3.8-6.8-9.8-12.5-17-15.8-.2-.1-.3-.2-.5-.2-.3-.2-.7-.3-1-.4 0 0-.1 0-.2-.1 4.3 3.8 7.1 9.3 7.2 15.5v1.2c-.3 11.4-9.5 20.6-20.9 21h-1.3c-5.8-.1-11.3-1.4-16.5-3.8-7.7-3.6-14.2-9.7-18.3-17.1l-.2-.3c-3.2-5.8-4.8-12.5-4.8-19.1 0-6 1.3-11.8 3.8-17.1.3-.6.5-1.1.8-1.7.1-.3.3-.5.4-.7.2-.4.4-.7.6-1.1l.3-.6c.2-.3.3-.5.5-.8.1-.1.1-.2.2-.3.2-.3.4-.6.6-.8.8-1.2 1.7-2.3 2.6-3.4.2-.2.4-.5.6-.7.1-.1.1-.2.2-.2.2-.3.5-.5.7-.8l.1-.1.7-.7.3-.3c.2-.2.4-.3.5-.5l.4-.4.6-.6h.1c.3-.2.6-.5.9-.7.3-.3.6-.5.9-.7-5.7 2.7-11 6.5-15.6 11.1-10.1 10.2-16 24-16.3 38.7v2.2c.3 14.7 6.2 28.5 16.6 38.9 10.4 10.4 24.2 16.3 38.9 16.5H108.9c.7 0 1.3-.1 2-.1.4 0 .9-.1 1.3-.2 4.5-.6 8.8-2 12.7-4.1.6-.3 1.2-.7 1.8-1 6.2-3.8 11.3-9.4 14.5-16.3 2.4-5 3.6-10.4 3.6-16 0-6.4-1.6-12.7-4.6-18.2z"/><path class="st6" d="M890 66.1v94.2h-13.8V66.1h-30V52.9H920v13.2h-30zM944 162.7c-10.8 0-19.7-3.7-26.7-11.1-7-7.4-10.5-16.7-10.5-28 0-11.2 3.4-20.5 10.2-28 6.8-7.4 15.5-11.2 26.1-11.2 10.9 0 19.6 3.5 26 10.6s9.7 16.9 9.7 29.6l-.2 1.5h-57.7c.2 7.2 2.6 13 7.2 17.4 4.6 4.4 10.1 6.6 16.5 6.6 8.8 0 15.7-4.4 20.7-13.2l12.3 6c-3.3 6.2-7.9 11.1-13.7 14.5-5.8 3.5-12.5 5.3-19.9 5.3zm-22-48h42.1c-.4-5.1-2.5-9.3-6.2-12.7-3.8-3.3-8.8-5-15.1-5-5.2 0-9.7 1.6-13.4 4.8-3.7 3.2-6.2 7.5-7.4 12.9zM1020.1 84.4c10.2 0 18.2 2.7 24.1 8.2 5.9 5.5 8.8 12.9 8.8 22.4v45.3h-13.2v-10.2h-.6c-5.7 8.4-13.3 12.6-22.8 12.6-8.1 0-14.9-2.4-20.3-7.2-5.5-4.8-8.2-10.8-8.2-18 0-7.6 2.9-13.6 8.6-18.1 5.7-4.5 13.4-6.8 23-6.8 8.2 0 14.9 1.5 20.2 4.5V114c0-4.8-1.9-8.9-5.7-12.2-3.8-3.3-8.2-5-13.3-5-7.7 0-13.8 3.2-18.3 9.7l-12.1-7.6c6.8-9.7 16.7-14.5 29.8-14.5zm-17.9 53.4c0 3.6 1.5 6.6 4.6 9 3 2.4 6.6 3.6 10.7 3.6 5.8 0 11-2.1 15.5-6.5 4.5-4.3 6.8-9.3 6.8-15.1-4.3-3.4-10.3-5.1-18-5.1-5.6 0-10.3 1.4-14 4-3.7 2.7-5.6 6.1-5.6 10.1zM1101.5 162.7c-10.9 0-19.9-3.7-27.1-11.1-7.1-7.6-10.6-16.9-10.6-28 0-11.3 3.5-20.6 10.6-28 7.2-7.4 16.2-11.1 27.1-11.1 7.5 0 14 1.9 19.6 5.6 5.6 3.7 9.8 8.9 12.6 15.5l-12.6 5.2c-3.9-9.2-10.8-13.8-20.5-13.8-6.3 0-11.8 2.5-16.3 7.6s-6.8 11.4-6.8 18.9c0 7.5 2.2 13.8 6.8 18.9 4.6 5.1 10 7.7 16.3 7.7 10.1 0 17.2-4.6 21.3-13.8l12.3 5.2c-2.7 6.6-6.9 11.8-12.7 15.5-5.7 3.8-12.4 5.7-20 5.7zM1146.2 52.9h13.8v33.9l-.6 10.2h.6c2.1-3.6 5.3-6.6 9.7-9 4.3-2.4 8.9-3.6 13.6-3.6 9 0 15.9 2.6 20.8 7.7 4.8 5.2 7.3 12.5 7.3 22v46.2h-13.8v-43.5c0-13.2-5.8-19.8-17.5-19.8-5.6 0-10.3 2.3-14.2 7-3.9 4.6-5.8 10.1-5.8 16.3v40h-13.8V52.9z"/></g></svg>